<?xml version="1.0" standalone="no"?>
<!DOCTYPE svg PUBLIC "-//W3C//DTD SVG 20010904//EN"
 "http://www.w3.org/TR/2001/REC-SVG-20010904/DTD/svg10.dtd">
<svg version="1.0" xmlns="http://www.w3.org/2000/svg"
 width="769.000000pt" height="769.000000pt" viewBox="0 0 769.000000 769.000000"
 preserveAspectRatio="xMidYMid meet">

<g transform="translate(0.000000,769.000000) scale(0.100000,-0.100000)"
fill="#000000" stroke="none">
<path d="M3153 7040 c-63 -13 -108 -39 -383 -225 -227 -153 -559 -376 -1315
-883 -126 -84 -242 -167 -257 -183 -33 -34 -38 -91 -12 -128 38 -54 -122 -51
2654 -51 2829 0 2619 -5 2660 62 19 32 20 49 20 678 0 629 -1 646 -20 678 -41
66 73 62 -1697 61 -884 -1 -1627 -5 -1650 -9z"/>
<path d="M1241 2193 c-76 -39 -71 14 -71 -766 0 -771 -3 -739 64 -771 31 -15
172 -16 1607 -16 1400 0 1579 2 1629 16 45 12 112 56 340 221 157 113 591 424
965 691 374 266 688 493 698 504 26 30 22 80 -9 109 l-26 24 -2581 3 c-2444 2
-2584 1 -2616 -15z"/>
</g>
</svg>
