<?xml version="1.0" encoding="UTF-8"?>
<svg version="1.1" xmlns="http://www.w3.org/2000/svg" width="230" height="236">
<path d="M0 0 C1.4218906 -0.00571223 2.84377662 -0.01267978 4.26565552 -0.02079773 C8.10464854 -0.0386515 11.94341202 -0.03757538 15.78243399 -0.03185534 C18.99788001 -0.02875176 22.21328267 -0.03486899 25.4287225 -0.04089409 C33.02022711 -0.05491255 40.61161913 -0.0534008 48.203125 -0.04199219 C56.01089535 -0.03051719 63.81832195 -0.04458221 71.62604702 -0.07138866 C78.35163459 -0.09360738 85.07711476 -0.10016909 91.8027364 -0.09431225 C95.80988815 -0.09095574 99.81681971 -0.09326995 103.82394028 -0.11056328 C107.59491298 -0.12612899 111.36538004 -0.12197163 115.13633347 -0.10325813 C117.1630611 -0.09786674 119.18981196 -0.11201331 121.2164917 -0.12695312 C130.89310984 -0.04962286 140.04622148 1.41596442 147.62548828 7.90405273 C148.35123047 8.51635742 149.07697266 9.12866211 149.82470703 9.75952148 C150.46021484 10.3022168 151.09572266 10.84491211 151.75048828 11.40405273 C152.63736328 12.00217773 153.52423828 12.60030273 154.43798828 13.21655273 C162.28087196 20.63549675 165.80137584 31.22427948 166.13816833 41.80282593 C166.15885465 44.2380164 166.16334676 46.67338017 166.15454102 49.10864258 C166.16025597 50.46009379 166.16722454 51.81154019 166.17533875 53.16297913 C166.19316257 56.80570912 166.19212215 60.4481968 166.18639636 64.09095716 C166.18328839 67.14481358 166.18941481 70.19862452 166.19543511 73.25247443 C166.20944373 80.46384691 166.20795007 87.67510083 166.1965332 94.88647461 C166.18505915 102.29719487 166.19912384 109.70755291 166.22592968 117.11822546 C166.24816581 123.50754714 166.25470622 129.89675579 166.24885327 136.28611338 C166.24550088 140.09040104 166.24778295 143.89445671 166.26510429 147.6987114 C166.28069814 151.27928945 166.27648237 154.85933573 166.25779915 158.43989372 C166.25242241 160.36026237 166.26653275 162.28065562 166.28149414 164.20097351 C166.17217849 177.22453644 162.52294998 188.26836212 153.49267578 197.78295898 C145.42505636 205.45857809 137.06723141 210.5057454 125.80076599 210.55122375 C124.5826976 210.55837906 123.36462921 210.56553436 122.10964966 210.57290649 C120.76263453 210.57574659 119.41561913 210.57845834 118.06860352 210.58105469 C116.64745417 210.58732258 115.22630646 210.59396967 113.80516052 210.60096741 C109.13981256 210.62197812 104.4744644 210.63236959 99.80908203 210.64233398 C98.1996312 210.64638319 96.59018054 210.65050016 94.98073006 210.65468407 C87.41538542 210.67373216 79.8500505 210.68796186 72.28468651 210.69629604 C63.57023366 210.70605595 54.85603567 210.73234435 46.14167255 210.77279693 C39.39497687 210.80303334 32.64835392 210.81777217 25.90159184 210.82107705 C21.87756694 210.82341969 17.85381441 210.8322765 13.82986259 210.85753822 C10.03847999 210.88095511 6.2475464 210.88499817 2.45611 210.87477684 C0.41737626 210.87405163 -1.62133537 210.89304829 -3.65997314 210.9128418 C-17.86476699 210.83315613 -26.81331117 206.38730292 -36.99560547 196.75170898 C-44.26519527 189.02894995 -48.36560091 179.15488368 -48.38322449 168.62432861 C-48.38748947 167.46930847 -48.39175446 166.31428833 -48.39614868 165.12426758 C-48.3956955 163.86598145 -48.39524231 162.60769531 -48.39477539 161.3112793 C-48.39776938 159.96555488 -48.40117246 158.61983132 -48.404953 157.27410889 C-48.41377432 153.62515211 -48.41613037 149.9762188 -48.41676879 146.32725239 C-48.41748052 144.04449788 -48.41961722 141.76174931 -48.42226601 139.47899628 C-48.43151431 131.50642011 -48.43560167 123.53386065 -48.43481445 115.5612793 C-48.43421428 108.14446148 -48.4447555 100.72771653 -48.46055812 93.31091714 C-48.47366225 86.93195641 -48.47899712 80.5530194 -48.47835904 74.17404532 C-48.47810484 70.36928224 -48.48091305 66.5645839 -48.49153709 62.75983429 C-48.50126617 59.17783379 -48.50126454 55.59595928 -48.49402046 52.01395416 C-48.49248743 50.0846139 -48.50078829 48.15527353 -48.50946045 46.22595215 C-48.46165159 32.93244816 -45.79420783 22.95949776 -36.43701172 13.15405273 C-25.23650009 2.6136473 -15.1833914 -0.05195493 0 0 Z " fill="#031536" transform="translate(56.24951171875,13.595947265625)"/>
<path d="M0 0 C31 0 31 0 40 6 C43.60231793 11.49991846 44.59247861 15.73933611 44.53344727 22.21679688 C44.54637062 23.3843325 44.54637062 23.3843325 44.55955505 24.57545471 C44.58207845 27.12356749 44.57550244 29.67056834 44.56640625 32.21875 C44.57164749 34.00419437 44.5779258 35.78963596 44.58518982 37.57507324 C44.59556854 41.30718059 44.59106849 45.03890604 44.57641602 48.77099609 C44.55922222 53.5391705 44.58274365 58.30614048 44.61790562 63.0741806 C44.63992812 66.75811657 44.63842661 70.44176639 44.6301403 74.12574768 C44.62932363 75.88311587 44.63613252 77.64050566 44.65091133 79.39781189 C44.7718154 96.37296165 44.7718154 96.37296165 39 103 C27.8708963 113.33416772 17.76835938 108 0 108 C0 72.36 0 36.72 0 0 Z " fill="#02F6B4" transform="translate(127,65)"/>
<path d="M0 0 C0 35.64 0 71.28 0 108 C-14.19 108 -28.38 108 -43 108 C-43.08021762 85.07113066 -43.08021762 85.07113066 -43.09765625 75.28320312 C-43.10960298 68.60942395 -43.12372304 61.93569976 -43.15087891 55.26196289 C-43.17263963 49.88032492 -43.18457549 44.49874592 -43.18975449 39.11706734 C-43.19344443 37.06581252 -43.20064995 35.01456087 -43.21146011 32.96333122 C-43.22601783 30.08607937 -43.22797614 27.20906998 -43.22705078 24.33178711 C-43.23783661 23.06510948 -43.23783661 23.06510948 -43.24884033 21.77284241 C-43.22714854 15.52298541 -42.85551457 10.20655787 -38.6875 5.25 C-26.18334524 -5.21859468 -22.38504204 0 0 0 Z " fill="#02F4B3" transform="translate(105,65)"/>
<path d="M0 0 C18.96692785 -0.07005035 37.93382949 -0.12296867 56.90085983 -0.15543652 C65.70738802 -0.17091193 74.51383587 -0.19201431 83.3203125 -0.22631836 C90.99515373 -0.2562001 98.66993678 -0.27557009 106.34483457 -0.28226548 C110.40945463 -0.28617983 114.47390826 -0.29539301 118.53847504 -0.31719017 C122.36336493 -0.33753603 126.18801966 -0.3438377 130.01295853 -0.33932304 C131.41744133 -0.3401491 132.82193191 -0.34612622 134.22636795 -0.35761642 C136.14294001 -0.37252888 138.05963795 -0.36716902 139.97625732 -0.36076355 C141.58570787 -0.36491162 141.58570787 -0.36491162 143.22767258 -0.36914349 C146.36377376 0.04843754 147.62354218 0.99195269 150 3 C150.66 3 151.32 3 152 3 C152 3.66 152 4.32 152 5 C151.13584976 4.83766876 150.27169952 4.67533752 149.38136292 4.50808716 C143.25950408 3.64241457 137.06698886 3.86077418 130.89819336 3.87060547 C129.46849015 3.86924896 128.03878729 3.86746762 126.60908508 3.86529541 C122.74144272 3.86075122 118.87382715 3.86249811 115.00618434 3.8656745 C110.9517591 3.8682132 106.8973361 3.8658564 102.84291077 3.86428833 C96.03646433 3.86247125 89.23002877 3.86486106 82.42358398 3.86962891 C74.56134513 3.87507282 66.6991322 3.87330607 58.83689398 3.8678025 C52.07747709 3.86326084 45.318068 3.86262592 38.55865008 3.86524117 C34.52543848 3.86679786 30.49223906 3.86701433 26.45902824 3.86370468 C22.6677409 3.8608106 18.87648692 3.86282991 15.08520317 3.86859894 C13.69608109 3.8699182 12.30695619 3.86954661 10.91783524 3.86733627 C9.01760714 3.86459202 7.11737289 3.86864793 5.21714783 3.87301636 C3.62410025 3.8735819 3.62410025 3.8735819 1.9988699 3.87415886 C-1.07340708 4.00308037 -3.98074119 4.4310902 -7 5 C-3.375 2 -3.375 2 0 2 C0 1.34 0 0.68 0 0 Z " fill="#27303D" transform="translate(42,14)"/>
<path d="M0 0 C0 0.66 0 1.32 0 2 C-12.67055591 5.62756488 -25.2358274 5.55827827 -38.3125 5.6875 C-40.63835754 5.71974326 -42.96420401 5.75279444 -45.29003906 5.78662109 C-52.19320813 5.88087821 -59.09642377 5.9445595 -66 6 C-66.98071472 6.00860046 -67.96142944 6.01720093 -68.97186279 6.02606201 C-88.08135355 6.19090997 -107.18495844 6.08466771 -126.2911377 5.68060303 C-128.02782173 5.64411336 -129.76455893 5.610056 -131.50134277 5.57867432 C-140.19017495 5.41462541 -148.51745486 5.10565702 -157 3 C-153.64020337 1.9836352 -150.59433049 1.88147112 -147.09255981 1.89320374 C-145.88409393 1.89471939 -144.67562805 1.89623505 -143.43054199 1.89779663 C-142.09448203 1.90452514 -140.75842247 1.91133323 -139.42236328 1.91821289 C-138.01280829 1.92176993 -136.60325205 1.92485567 -135.19369507 1.92750549 C-132.15986772 1.93405295 -129.1260699 1.94361024 -126.09225845 1.95540047 C-121.29319145 1.9737019 -116.4941316 1.98329473 -111.69503784 1.99131775 C-98.04877585 2.0154623 -84.40255752 2.05132892 -70.75634766 2.09594727 C-63.21843585 2.1205166 -55.68054118 2.13786588 -48.14259517 2.14750665 C-43.37400586 2.15404145 -38.60555792 2.16958359 -33.8370173 2.19182408 C-30.86710071 2.20357472 -27.89721826 2.20692268 -24.92728043 2.20792198 C-22.8983368 2.21108512 -20.86941645 2.22425117 -18.84051514 2.23773193 C-17.01935684 2.23577568 -17.01935684 2.23577568 -15.16140747 2.23377991 C-13.58463824 2.23849351 -13.58463824 2.23849351 -11.97601509 2.24330235 C-7.75601906 1.89829908 -4.22613165 0 0 0 Z " fill="#060B22" transform="translate(196,218)"/>
<path d="M0 0 C0.66 0 1.32 0 2 0 C2.00423194 0.68745772 2.00846388 1.37491545 2.01282406 2.08320522 C2.11627234 18.83521926 2.22493083 35.58719065 2.33933926 52.33913326 C2.39454226 60.44034874 2.44800249 68.54156861 2.49731445 76.64282227 C2.54031516 83.70649252 2.5866322 90.77013204 2.63687855 97.8337546 C2.66335211 101.57148629 2.68820092 105.30921239 2.70907402 109.0469799 C2.73247686 113.22659691 2.76328581 117.40612871 2.79467773 121.58569336 C2.8004332 122.81568558 2.80618866 124.0456778 2.81211853 125.3129425 C2.86589016 131.62065379 3.16788734 137.74574562 4 144 C2 142 2 142 1.875 139.375 C1.91625 138.59125 1.9575 137.8075 2 137 C1.34 137 0.68 137 0 137 C0 91.79 0 46.58 0 0 Z " fill="#0A0E17" transform="translate(9,51)"/>
<path d="M0 0 C4.30495015 -0.09935088 8.60928183 -0.17169268 12.91503906 -0.21972656 C14.37772252 -0.23976332 15.84032666 -0.26700104 17.30273438 -0.30175781 C19.4129601 -0.35063225 21.52212136 -0.37304659 23.6328125 -0.390625 C24.90012207 -0.41157227 26.16743164 -0.43251953 27.47314453 -0.45410156 C31.795663 0.10244588 33.60718469 1.36063627 37 4 C36.34 4.33 35.68 4.66 35 5 C34.10716309 4.69916504 33.21432617 4.39833008 32.29443359 4.08837891 C28.79867252 2.93348763 25.95977963 2.68696641 22.2890625 2.5859375 C20.42314453 2.52792969 20.42314453 2.52792969 18.51953125 2.46875 C17.23433594 2.4378125 15.94914063 2.406875 14.625 2.375 C13.31660156 2.33632812 12.00820312 2.29765625 10.66015625 2.2578125 C7.44024284 2.16380043 4.2203312 2.07814179 1 2 C0.67 1.34 0.34 0.68 0 0 Z " fill="#1ACEB4" transform="translate(127,65)"/>
<path d="M0 0 C0.66 0 1.32 0 2 0 C2.33 2.31 2.66 4.62 3 7 C3.66 7 4.32 7 5 7 C5 8.32 5 9.64 5 11 C5.66 11 6.32 11 7 11 C7 11.99 7 12.98 7 14 C7.66 14 8.32 14 9 14 C11.125 18.625 11.125 18.625 10 22 C-0.67819149 7.46010638 -0.67819149 7.46010638 0 0 Z " fill="#535962" transform="translate(9,188)"/>
<path d="M0 0 C1.91796875 0.3671875 1.91796875 0.3671875 4 1 C6.53629129 5.10637637 5.901316 8.40328841 5 13 C3.49439503 10.14589666 2.36783204 7.31875358 1.375 4.25 C0.98441406 3.05117188 0.98441406 3.05117188 0.5859375 1.828125 C0.39257812 1.22484375 0.19921875 0.6215625 0 0 Z " fill="#2C303B" transform="translate(214,36)"/>
<path d="M0 0 C0.66 0.33 1.32 0.66 2 1 C2.34615998 6.65394631 1.43425238 10.03006806 -1 15 C-2.20220203 11.46905698 -1.79532349 8.87101018 -1.0625 5.25 C-0.86785156 4.26515625 -0.67320312 3.2803125 -0.47265625 2.265625 C-0.31667969 1.51796875 -0.16070312 0.7703125 0 0 Z " fill="#292F3A" transform="translate(218,187)"/>
<path d="M0 0 C1.12377697 3.30435084 0.89554742 5.0506862 -0.4375 8.25 C-0.72496094 8.95640625 -1.01242187 9.6628125 -1.30859375 10.390625 C-1.53675781 10.92171875 -1.76492188 11.4528125 -2 12 C-2.33 12 -2.66 12 -3 12 C-2.14285714 3.42857143 -2.14285714 3.42857143 0 0 Z " fill="#A0A5A9" transform="translate(12,37)"/>
<path d="M0 0 C0.66 0.33 1.32 0.66 2 1 C0.02 3.97 0.02 3.97 -2 7 C-2.99 6.34 -3.98 5.68 -5 5 C-3.35 3.35 -1.7 1.7 0 0 Z " fill="#454F5D" transform="translate(24,23)"/>
<path d="M0 0 C1.98 0 3.96 0 6 0 C6.33 1.32 6.66 2.64 7 4 C4.97954558 3.39816251 2.97888961 2.72693904 1 2 C0.67 1.34 0.34 0.68 0 0 Z " fill="#5F6971" transform="translate(28,217)"/>
</svg>
