<?xml version="1.0" standalone="no"?>
<svg xmlns="http://www.w3.org/2000/svg" viewBox="326 365 165 180" fill="currentColor" preserveAspectRatio="xMidYMid meet" role="img" aria-label="Solden">
  <g transform="translate(0, 910) scale(0.1, -0.1)">
    <path d="M3699 5352 c-53 -37 -173 -118 -268 -181 -140 -93 -171 -118 -169 -135 l3 -21 785 -2 c483 -2 791 1 800 7 12 7 16 42 18 184 3 115 0 181 -8 195 -11 21 -14 21 -538 21 l-527 0 -96 -68z"/>
    <path d="M3273 4073 c-16 -6 -19 -368 -3 -378 5 -3 248 -7 538 -7 l529 -1 259 175 c186 126 260 181 262 197 l3 21 -788 -1 c-433 0 -794 -3 -800 -6z"/>
  </g>
</svg>
