<?xml version="1.0" standalone="no"?>
<svg xmlns="http://www.w3.org/2000/svg" viewBox="0 0 1729 910" fill="currentColor" preserveAspectRatio="xMidYMid meet" role="img" aria-label="Solden">
  <g transform="translate(0, 910) scale(0.1, -0.1)">
    <path d="M9099 5636 c-2 -2 -3 -439 -1 -970 l2 -966 140 0 140 0 -2 968 -3 967 -136 3 c-74 1 -137 1 -140 -2z"/>
    <path d="M10880 5271 l0 -369 -64 63 c-270 265 -746 221 -1008 -93 -55 -67 -123 -208 -143 -298 -24 -106 -17 -300 15 -399 46 -143 118 -255 221 -342 134 -113 277 -163 463 -163 196 0 313 46 438 171 l78 78 0 -109 0 -109 136 -3 c75 -2 138 -1 140 1 2 2 4 440 4 973 l0 968 -140 0 -140 0 0 -369z m-355 -386 c210 -55 355 -247 355 -470 0 -248 -173 -457 -410 -494 -224 -36 -445 114 -514 348 -24 80 -21 226 5 304 79 238 325 374 564 312z"/>
    <path d="M3699 5352 c-53 -37 -173 -118 -268 -181 -140 -93 -171 -118 -169 -135 l3 -21 785 -2 c483 -2 791 1 800 7 12 7 16 42 18 184 3 115 0 181 -8 195 -11 21 -14 21 -538 21 l-527 0 -96 -68z"/>
    <path d="M7905 5150 c-150 -22 -304 -100 -415 -209 -369 -363 -274 -978 185 -1197 118 -57 211 -76 360 -76 150 0 240 19 351 75 251 127 397 351 411 632 6 123 -14 231 -61 338 -88 200 -285 365 -505 422 -76 20 -243 27 -326 15z m329 -293 c369 -175 367 -719 -3 -896 -68 -32 -86 -36 -173 -39 -160 -6 -266 36 -369 145 -68 74 -103 137 -124 225 -50 213 43 436 228 544 88 51 145 64 263 61 93 -3 108 -7 178 -40z"/>
    <path d="M6264 5130 c-95 -25 -135 -42 -202 -89 -109 -77 -163 -175 -170 -308 -9 -171 64 -279 237 -352 30 -13 157 -45 284 -72 126 -26 249 -58 273 -69 55 -27 85 -69 92 -126 14 -123 -97 -197 -293 -196 -179 1 -283 56 -370 196 -9 14 -23 12 -135 -25 -69 -22 -126 -42 -127 -43 -2 -1 13 -35 32 -75 69 -144 211 -241 410 -282 140 -29 334 -23 451 15 147 47 253 136 295 247 40 104 34 250 -13 343 -11 22 -44 63 -73 92 -71 69 -168 109 -355 145 -320 62 -366 78 -408 140 -54 79 10 187 132 220 68 18 242 7 301 -19 55 -25 109 -72 131 -114 l14 -27 112 54 c126 59 126 60 78 130 -73 106 -205 190 -345 220 -98 21 -263 18 -351 -5z"/>
    <path d="M12014 5126 c-132 -25 -218 -63 -320 -140 -122 -91 -225 -253 -258 -403 -20 -92 -20 -252 0 -351 47 -236 237 -451 463 -527 150 -50 342 -51 497 -4 143 43 276 147 357 278 l37 61 -27 11 c-16 5 -71 26 -122 46 l-95 36 -25 -34 c-74 -100 -168 -158 -292 -180 -88 -16 -189 0 -276 43 -70 34 -158 120 -192 186 -18 36 -51 141 -51 164 0 4 253 8 561 8 l562 0 -6 138 c-3 103 -10 154 -27 207 -73 232 -233 388 -456 445 -102 26 -241 33 -330 16z m299 -259 c78 -36 128 -77 166 -135 32 -50 61 -130 61 -169 l0 -23 -411 0 -411 0 7 38 c18 103 109 226 202 272 78 39 131 50 233 47 78 -2 105 -8 153 -30z"/>
    <path d="M13665 5101 c-106 -31 -202 -93 -254 -163 l-31 -42 0 97 0 97 -140 0 -140 0 0 -695 0 -695 139 0 140 0 3 448 c4 442 4 448 28 512 18 50 37 79 84 126 77 76 143 104 250 104 135 0 221 -52 278 -168 l33 -67 3 -477 3 -478 142 0 142 0 -5 522 c-5 518 -5 524 -28 580 -86 213 -250 319 -492 317 -59 0 -118 -7 -155 -18z"/>
    <path d="M3273 4073 c-16 -6 -19 -368 -3 -378 5 -3 248 -7 538 -7 l529 -1 259 175 c186 126 260 181 262 197 l3 21 -788 -1 c-433 0 -794 -3 -800 -6z"/>
  </g>
</svg>
